<svg xmlns="http://www.w3.org/2000/svg" viewBox="0 0 1254 1254" width="1254" height="1254">
<rect width="100%" height="100%" fill="black"/>
<path d="M 1087,780 L 1087,802 L 1090,802 L 1090,787 L 1091,786 L 1092,786 L 1093,787 L 1093,788 L 1094,789 L 1094,790 L 1096,792 L 1096,793 L 1099,796 L 1099,797 L 1101,799 L 1101,800 L 1103,802 L 1107,802 L 1107,780 L 1103,780 L 1103,794 L 1102,795 L 1101,794 L 1101,793 L 1099,791 L 1099,790 L 1096,787 L 1096,786 L 1094,784 L 1094,783 L 1092,781 L 1092,780 Z" fill="white"/>
<path d="M 1014,780 L 1014,802 L 1017,802 L 1017,780 Z" fill="white"/>
<path d="M 973,780 L 973,782 L 979,782 L 980,783 L 980,802 L 983,802 L 983,784 L 985,782 L 991,782 L 991,780 Z" fill="white"/>
<path d="M 931,780 L 932,781 L 931,782 L 931,790 L 932,791 L 932,798 L 936,802 L 938,802 L 939,803 L 942,803 L 943,802 L 945,802 L 946,801 L 947,801 L 949,799 L 949,798 L 950,797 L 950,780 L 947,780 L 947,795 L 946,796 L 946,797 L 944,799 L 941,799 L 940,800 L 939,799 L 938,799 L 935,796 L 935,780 Z" fill="white"/>
<path d="M 896,780 L 896,802 L 909,802 L 909,799 L 900,799 L 899,798 L 899,780 Z" fill="white"/>
<path d="M 744,780 L 744,802 L 747,802 L 747,794 L 748,793 L 751,793 L 754,796 L 754,797 L 755,798 L 755,799 L 756,800 L 756,801 L 757,802 L 761,802 L 761,801 L 759,799 L 759,798 L 758,797 L 758,796 L 756,794 L 756,793 L 758,791 L 759,791 L 759,790 L 761,788 L 761,784 L 760,783 L 760,782 L 759,781 L 758,781 L 757,780 Z" fill="white"/>
<path d="M 747,784 L 749,782 L 754,782 L 757,785 L 757,788 L 756,789 L 755,789 L 754,790 L 749,790 L 747,788 Z" fill="black"/>
<path d="M 708,780 L 708,781 L 707,782 L 707,783 L 706,784 L 706,785 L 705,786 L 705,788 L 704,789 L 704,790 L 703,791 L 703,793 L 702,794 L 702,795 L 701,796 L 701,798 L 700,799 L 700,800 L 699,801 L 699,802 L 703,802 L 703,801 L 704,800 L 704,798 L 705,797 L 715,797 L 716,798 L 716,799 L 717,800 L 717,801 L 718,802 L 721,802 L 721,800 L 720,799 L 720,798 L 719,797 L 719,795 L 718,794 L 718,793 L 717,792 L 717,790 L 716,789 L 716,788 L 715,787 L 715,786 L 714,785 L 714,783 L 713,782 L 713,781 L 712,780 Z" fill="white"/>
<path d="M 710,784 L 711,785 L 711,786 L 712,787 L 712,788 L 713,789 L 713,791 L 714,792 L 714,793 L 713,794 L 707,794 L 706,793 L 707,792 L 707,790 L 708,789 L 708,787 L 709,786 L 709,785 Z" fill="black"/>
<path d="M 510,780 L 510,802 L 513,802 L 513,780 Z" fill="white"/>
<path d="M 465,780 L 465,802 L 468,802 L 468,787 L 469,786 L 470,786 L 471,787 L 471,788 L 473,790 L 473,791 L 475,793 L 475,794 L 477,796 L 477,797 L 479,799 L 479,800 L 481,802 L 485,802 L 485,780 L 482,780 L 482,791 L 481,792 L 481,793 L 482,794 L 481,795 L 480,795 L 479,794 L 479,793 L 477,791 L 477,790 L 474,787 L 474,786 L 473,785 L 473,784 L 471,782 L 471,781 L 470,780 Z" fill="white"/>
<path d="M 425,780 L 425,802 L 428,802 L 428,794 L 429,793 L 432,793 L 434,795 L 434,796 L 435,797 L 435,798 L 437,800 L 437,801 L 438,802 L 442,802 L 441,801 L 441,800 L 440,799 L 440,798 L 438,796 L 438,795 L 437,794 L 437,793 L 439,791 L 440,791 L 440,790 L 441,789 L 441,787 L 442,786 L 441,785 L 441,783 L 438,780 Z" fill="white"/>
<path d="M 428,783 L 429,782 L 435,782 L 438,785 L 438,787 L 435,790 L 429,790 L 428,789 Z" fill="black"/>
<path d="M 262,780 L 262,802 L 277,802 L 277,799 L 266,799 L 265,798 L 265,793 L 266,792 L 276,792 L 276,789 L 266,789 L 265,788 L 265,783 L 266,782 L 277,782 L 277,780 Z" fill="white"/>
<path d="M 177,780 L 177,782 L 183,782 L 184,783 L 184,802 L 187,802 L 187,784 L 189,782 L 195,782 L 195,780 Z" fill="white"/>
<path d="M 1050,779 L 1049,780 L 1047,780 L 1046,781 L 1045,781 L 1042,784 L 1042,785 L 1041,786 L 1041,789 L 1040,790 L 1040,791 L 1041,792 L 1041,795 L 1042,796 L 1042,797 L 1043,798 L 1043,799 L 1044,799 L 1047,802 L 1050,802 L 1051,803 L 1053,803 L 1054,802 L 1057,802 L 1058,801 L 1059,801 L 1062,798 L 1062,797 L 1063,796 L 1063,795 L 1064,794 L 1064,787 L 1063,786 L 1063,785 L 1062,784 L 1062,783 L 1060,781 L 1059,781 L 1058,780 L 1056,780 L 1055,779 Z" fill="white"/>
<path d="M 1050,782 L 1054,782 L 1055,783 L 1056,783 L 1060,787 L 1060,795 L 1056,799 L 1054,799 L 1053,800 L 1052,800 L 1051,799 L 1049,799 L 1048,798 L 1047,798 L 1046,797 L 1046,796 L 1045,795 L 1045,794 L 1044,793 L 1044,789 L 1045,788 L 1045,786 L 1048,783 L 1049,783 Z" fill="black"/>
<path d="M 855,780 L 850,785 L 850,787 L 849,788 L 849,793 L 850,794 L 850,796 L 851,797 L 851,798 L 854,801 L 855,801 L 856,802 L 860,802 L 861,803 L 862,802 L 866,802 L 868,800 L 869,800 L 870,799 L 870,798 L 872,796 L 872,794 L 873,793 L 873,789 L 872,788 L 872,786 L 871,785 L 871,784 L 868,781 L 867,781 L 866,780 L 865,780 L 864,779 L 858,779 L 857,780 Z" fill="white"/>
<path d="M 859,782 L 863,782 L 864,783 L 865,783 L 868,786 L 868,787 L 869,788 L 869,793 L 868,794 L 868,795 L 867,796 L 867,797 L 866,798 L 865,798 L 864,799 L 863,799 L 862,800 L 860,800 L 859,799 L 857,799 L 854,796 L 854,795 L 853,794 L 853,787 L 857,783 L 858,783 Z" fill="black"/>
<path d="M 822,779 L 816,779 L 815,780 L 814,780 L 811,783 L 811,788 L 814,791 L 816,791 L 817,792 L 819,792 L 820,793 L 821,793 L 823,795 L 823,797 L 820,800 L 817,800 L 816,799 L 815,799 L 813,797 L 812,797 L 810,799 L 810,800 L 811,800 L 813,802 L 817,802 L 818,803 L 819,802 L 822,802 L 823,801 L 824,801 L 826,799 L 826,798 L 827,797 L 827,794 L 826,793 L 826,792 L 824,790 L 822,790 L 821,789 L 818,789 L 817,788 L 816,788 L 815,787 L 815,786 L 814,785 L 817,782 L 821,782 L 822,783 L 823,783 L 824,784 L 826,782 L 826,781 L 825,781 L 824,780 L 823,780 Z" fill="white"/>
<path d="M 681,779 L 680,780 L 663,780 L 663,782 L 669,782 L 671,784 L 671,802 L 674,802 L 674,783 L 675,782 L 681,782 Z" fill="white"/>
<path d="M 637,779 L 631,779 L 630,780 L 629,780 L 627,782 L 627,783 L 626,784 L 626,787 L 627,788 L 627,789 L 629,791 L 631,791 L 632,792 L 634,792 L 635,793 L 636,793 L 638,795 L 638,797 L 635,800 L 632,800 L 631,799 L 630,799 L 629,798 L 627,798 L 626,799 L 625,799 L 628,802 L 632,802 L 633,803 L 634,802 L 638,802 L 641,799 L 641,797 L 642,796 L 642,795 L 641,794 L 641,792 L 640,791 L 639,791 L 638,790 L 636,790 L 635,789 L 633,789 L 632,788 L 631,788 L 629,786 L 629,785 L 632,782 L 636,782 L 637,783 L 638,783 L 639,784 L 641,782 L 641,781 L 640,781 L 639,780 L 638,780 Z" fill="white"/>
<path d="M 587,780 L 583,784 L 583,785 L 582,786 L 582,788 L 581,789 L 581,792 L 582,793 L 582,795 L 583,796 L 583,797 L 584,798 L 584,799 L 585,800 L 586,800 L 587,801 L 588,801 L 589,802 L 592,802 L 593,803 L 595,803 L 596,802 L 599,802 L 600,801 L 601,801 L 602,800 L 602,790 L 594,790 L 594,793 L 598,793 L 599,794 L 599,798 L 598,799 L 596,799 L 595,800 L 593,800 L 592,799 L 590,799 L 586,795 L 586,794 L 585,793 L 585,789 L 586,788 L 586,786 L 589,783 L 590,783 L 591,782 L 596,782 L 597,783 L 598,783 L 599,784 L 600,784 L 601,783 L 602,783 L 602,782 L 601,781 L 600,781 L 599,780 L 598,780 L 597,779 L 590,779 L 589,780 Z" fill="white"/>
<path d="M 557,779 L 555,779 L 554,780 L 554,793 L 555,794 L 554,795 L 553,795 L 552,794 L 552,793 L 550,791 L 550,790 L 547,787 L 547,786 L 546,785 L 546,784 L 544,782 L 544,781 L 543,780 L 538,780 L 538,802 L 541,802 L 541,787 L 542,786 L 543,786 L 544,787 L 544,788 L 546,790 L 546,791 L 548,793 L 548,794 L 550,796 L 550,797 L 552,799 L 552,800 L 554,802 L 558,802 L 558,780 Z" fill="white"/>
<path d="M 386,779 L 385,780 L 384,780 L 383,781 L 382,781 L 379,784 L 379,785 L 378,786 L 378,789 L 377,790 L 377,792 L 378,793 L 378,795 L 379,796 L 379,797 L 380,798 L 380,799 L 381,800 L 382,800 L 383,801 L 384,801 L 385,802 L 388,802 L 389,803 L 390,803 L 391,802 L 394,802 L 395,801 L 396,801 L 400,797 L 400,795 L 401,794 L 401,787 L 400,786 L 400,785 L 399,784 L 399,783 L 397,781 L 396,781 L 395,780 L 393,780 L 392,779 Z" fill="white"/>
<path d="M 387,782 L 391,782 L 392,783 L 393,783 L 397,787 L 397,794 L 396,795 L 396,796 L 393,799 L 391,799 L 390,800 L 388,800 L 387,799 L 386,799 L 385,798 L 384,798 L 383,797 L 383,796 L 382,795 L 382,794 L 381,793 L 381,788 L 382,787 L 382,786 L 385,783 L 386,783 Z" fill="black"/>
<path d="M 329,780 L 329,801 L 330,802 L 333,802 L 333,787 L 334,786 L 335,787 L 335,788 L 336,789 L 336,791 L 337,792 L 337,793 L 338,794 L 338,796 L 339,797 L 339,799 L 340,800 L 340,801 L 341,802 L 343,802 L 343,801 L 344,800 L 344,798 L 345,797 L 345,796 L 346,795 L 346,793 L 347,792 L 347,790 L 348,789 L 348,787 L 350,785 L 351,786 L 351,802 L 354,802 L 354,780 L 353,779 L 352,780 L 351,779 L 349,779 L 348,780 L 348,781 L 347,782 L 347,783 L 346,784 L 346,786 L 345,787 L 345,789 L 344,790 L 344,791 L 343,792 L 343,794 L 342,795 L 340,793 L 340,791 L 339,790 L 339,788 L 338,787 L 338,786 L 337,785 L 337,783 L 336,782 L 336,781 L 335,780 L 331,780 L 330,779 Z" fill="white"/>
<path d="M 218,779 L 218,802 L 221,802 L 221,793 L 222,792 L 232,792 L 233,793 L 233,801 L 234,802 L 237,802 L 237,780 L 236,779 L 235,780 L 233,780 L 233,788 L 232,789 L 222,789 L 221,788 L 221,780 L 219,780 Z" fill="white"/>
<path d="M 1178,522 L 1177,522 L 1171,528 L 1165,532 L 1130,562 L 1124,566 L 1113,576 L 1107,580 L 1083,601 L 1083,603 L 1081,607 L 1081,610 L 1079,613 L 1079,616 L 1077,620 L 1077,623 L 1073,633 L 1073,636 L 1069,646 L 1069,649 L 1065,659 L 1065,662 L 1061,672 L 1061,675 L 1059,679 L 1059,682 L 1055,692 L 1055,695 L 1050,708 L 1050,711 L 1049,712 L 1049,714 L 1047,718 L 1047,721 L 1046,722 L 1043,732 L 1113,732 L 1116,722 L 1117,721 L 1117,718 L 1120,711 L 1120,708 L 1125,695 L 1125,692 L 1128,685 L 1128,682 L 1132,672 L 1132,669 L 1136,659 L 1136,656 L 1141,643 L 1141,640 L 1145,630 L 1145,627 L 1146,626 L 1146,624 L 1148,620 L 1148,617 L 1152,607 L 1152,604 L 1156,594 L 1156,591 L 1159,584 L 1159,581 L 1160,580 L 1160,578 L 1165,565 L 1165,562 L 1169,552 L 1169,549 L 1173,539 L 1173,536 L 1175,532 L 1175,529 Z" fill="white"/>
<path d="M 1190,487 L 1171,487 L 1160,498 L 1159,498 L 1144,513 L 1143,513 L 1130,526 L 1129,526 L 1116,539 L 1115,539 L 1104,550 L 1103,550 L 1093,560 L 1093,562 L 1092,563 L 1092,565 L 1091,566 L 1091,569 L 1090,570 L 1090,573 L 1089,574 L 1089,577 L 1088,578 L 1088,580 L 1087,581 L 1087,582 L 1093,576 L 1094,576 L 1106,564 L 1107,564 L 1118,553 L 1119,553 L 1132,540 L 1133,540 L 1144,529 L 1145,529 L 1159,515 L 1160,515 L 1170,505 L 1171,505 L 1183,493 L 1184,493 Z" fill="white"/>
<path d="M 1149,487 L 1130,487 L 1120,497 L 1119,497 L 1103,513 L 1102,513 L 1087,528 L 1086,528 L 1068,546 L 1067,546 L 1062,551 L 1062,552 L 1080,552 L 1093,539 L 1094,539 L 1110,523 L 1111,523 L 1127,507 L 1128,507 L 1140,495 L 1141,495 Z" fill="white"/>
<path d="M 863,508 L 842,527 L 827,548 L 818,567 L 791,647 L 789,675 L 793,690 L 799,702 L 810,715 L 823,724 L 835,729 L 850,732 L 1023,732 L 1043,670 L 878,670 L 868,666 L 857,654 L 854,644 L 855,632 L 874,579 L 878,573 L 895,558 L 912,552 L 1038,552 L 1104,487 L 918,487 L 889,494 Z" fill="white"/>
<path d="M 855,487 L 657,487 L 630,495 L 613,506 L 601,518 L 587,542 L 574,582 L 574,598 L 582,618 L 597,632 L 616,639 L 706,639 L 714,645 L 715,657 L 705,669 L 375,670 L 354,732 L 704,732 L 724,727 L 747,713 L 765,691 L 785,636 L 786,622 L 783,609 L 774,595 L 751,582 L 647,581 L 639,571 L 642,560 L 652,552 L 795,552 L 826,515 Z" fill="white"/>
<path d="M 436,487 L 412,561 L 410,564 L 393,615 L 393,618 L 452,618 L 454,615 L 459,600 L 459,597 L 466,580 L 496,617 L 498,618 L 560,618 L 561,617 L 531,577 L 514,552 L 596,487 L 532,487 L 483,525 L 482,523 L 494,487 Z" fill="white"/>
<path d="M 470,500 L 471,501 L 471,505 L 470,506 L 470,515 L 469,516 L 469,525 L 468,526 L 468,539 L 469,538 L 478,534 L 480,532 L 481,532 L 482,533 L 480,535 L 479,538 L 474,544 L 474,546 L 477,546 L 478,547 L 480,547 L 481,548 L 484,548 L 485,549 L 489,549 L 490,550 L 493,550 L 494,551 L 496,551 L 497,552 L 496,553 L 493,553 L 492,554 L 488,554 L 487,555 L 483,555 L 482,556 L 478,556 L 477,557 L 473,557 L 472,558 L 471,558 L 471,560 L 472,561 L 472,563 L 473,564 L 473,566 L 474,567 L 474,569 L 475,570 L 475,571 L 474,572 L 462,564 L 462,565 L 459,570 L 459,572 L 457,575 L 457,577 L 455,580 L 455,582 L 453,585 L 453,587 L 451,590 L 451,592 L 449,595 L 449,597 L 447,600 L 446,605 L 444,607 L 443,606 L 443,605 L 444,604 L 444,600 L 445,599 L 445,593 L 446,592 L 446,586 L 447,585 L 447,579 L 448,578 L 448,571 L 449,570 L 449,565 L 448,565 L 447,566 L 445,566 L 440,569 L 438,569 L 437,570 L 436,570 L 435,569 L 436,568 L 436,567 L 443,558 L 442,558 L 441,557 L 439,557 L 438,556 L 435,556 L 434,555 L 431,555 L 430,554 L 428,554 L 427,553 L 424,553 L 423,552 L 423,551 L 424,550 L 428,550 L 429,549 L 432,549 L 433,548 L 437,548 L 438,547 L 441,547 L 442,546 L 445,546 L 446,545 L 447,545 L 446,540 L 445,539 L 445,538 L 444,537 L 444,535 L 442,532 L 442,531 L 443,530 L 445,532 L 446,532 L 454,538 L 456,538 L 456,536 L 458,533 L 459,528 L 461,525 L 461,523 L 462,522 L 463,517 L 465,514 L 465,512 L 466,511 L 466,509 L 467,508 L 468,503 Z" fill="black"/>
<path d="M 415,487 L 307,487 L 286,492 L 260,506 L 234,531 L 84,732 L 160,732 L 279,575 L 294,561 L 313,554 L 318,555 L 261,732 L 332,732 Z" fill="white"/>
</svg>